<mxfile host="app.diagrams.net" modified="2023-07-27T19:25:40.703Z" agent="Mozilla/5.0 (Windows NT 10.0; Win64; x64) AppleWebKit/537.36 (KHTML, like Gecko) Chrome/115.0.0.0 Safari/537.36" etag="f1BatbEdhwyjy_hmChFd" version="21.6.5" type="device">
  <diagram name="Страница 1" id="uVvRP8CS69bqcPoMI8bg">
    <mxGraphModel dx="1290" dy="574" grid="1" gridSize="10" guides="1" tooltips="1" connect="1" arrows="1" fold="1" page="1" pageScale="1" pageWidth="827" pageHeight="1169" math="0" shadow="0">
      <root>
        <mxCell id="0" />
        <mxCell id="1" parent="0" />
        <mxCell id="xleVPnC-3PazFgrdm_HD-3" style="edgeStyle=orthogonalEdgeStyle;rounded=0;orthogonalLoop=1;jettySize=auto;html=1;exitX=0.5;exitY=1;exitDx=0;exitDy=0;entryX=0.5;entryY=0;entryDx=0;entryDy=0;" edge="1" parent="1" source="xleVPnC-3PazFgrdm_HD-1" target="xleVPnC-3PazFgrdm_HD-2">
          <mxGeometry relative="1" as="geometry" />
        </mxCell>
        <mxCell id="xleVPnC-3PazFgrdm_HD-1" value="Вegin" style="rounded=1;whiteSpace=wrap;html=1;arcSize=50;" vertex="1" parent="1">
          <mxGeometry x="320" y="50" width="120" height="30" as="geometry" />
        </mxCell>
        <mxCell id="xleVPnC-3PazFgrdm_HD-7" style="edgeStyle=orthogonalEdgeStyle;rounded=0;orthogonalLoop=1;jettySize=auto;html=1;exitX=0.5;exitY=1;exitDx=0;exitDy=0;entryX=0.5;entryY=0;entryDx=0;entryDy=0;" edge="1" parent="1" source="xleVPnC-3PazFgrdm_HD-2" target="xleVPnC-3PazFgrdm_HD-6">
          <mxGeometry relative="1" as="geometry" />
        </mxCell>
        <mxCell id="xleVPnC-3PazFgrdm_HD-2" value="Ввод строки с консоли" style="rounded=0;whiteSpace=wrap;html=1;" vertex="1" parent="1">
          <mxGeometry x="320" y="130" width="120" height="40" as="geometry" />
        </mxCell>
        <mxCell id="xleVPnC-3PazFgrdm_HD-9" style="edgeStyle=orthogonalEdgeStyle;rounded=0;orthogonalLoop=1;jettySize=auto;html=1;exitX=0.5;exitY=1;exitDx=0;exitDy=0;" edge="1" parent="1" source="xleVPnC-3PazFgrdm_HD-6" target="xleVPnC-3PazFgrdm_HD-8">
          <mxGeometry relative="1" as="geometry" />
        </mxCell>
        <mxCell id="xleVPnC-3PazFgrdm_HD-6" value="Присвоение введенной строки&amp;nbsp;&lt;br&gt;переменной word" style="shape=parallelogram;perimeter=parallelogramPerimeter;whiteSpace=wrap;html=1;fixedSize=1;" vertex="1" parent="1">
          <mxGeometry x="295" y="220" width="170" height="70" as="geometry" />
        </mxCell>
        <mxCell id="xleVPnC-3PazFgrdm_HD-11" style="edgeStyle=orthogonalEdgeStyle;rounded=0;orthogonalLoop=1;jettySize=auto;html=1;exitX=0.5;exitY=1;exitDx=0;exitDy=0;entryX=0.5;entryY=0;entryDx=0;entryDy=0;" edge="1" parent="1" source="xleVPnC-3PazFgrdm_HD-8" target="xleVPnC-3PazFgrdm_HD-10">
          <mxGeometry relative="1" as="geometry" />
        </mxCell>
        <mxCell id="xleVPnC-3PazFgrdm_HD-8" value="Возращение переменной word" style="shape=parallelogram;perimeter=parallelogramPerimeter;whiteSpace=wrap;html=1;fixedSize=1;" vertex="1" parent="1">
          <mxGeometry x="280" y="320" width="200" height="40" as="geometry" />
        </mxCell>
        <mxCell id="xleVPnC-3PazFgrdm_HD-10" value="END" style="rounded=1;whiteSpace=wrap;html=1;arcSize=50;" vertex="1" parent="1">
          <mxGeometry x="330" y="390" width="100" height="30" as="geometry" />
        </mxCell>
      </root>
    </mxGraphModel>
  </diagram>
</mxfile>
